<svg width="36" height="23" viewBox="0 0 36 23" fill="none" xmlns="http://www.w3.org/2000/svg">
<path d="M1.64419 1.79131C2.5961 2.29322 15.8189 9.50173 16.3122 9.76134C16.8054 10.0209 17.3073 10.1421 18.0862 10.1421C18.865 10.1421 19.3669 10.0209 19.8602 9.76134C20.3534 9.50173 33.5762 2.29322 34.5281 1.79131C34.8829 1.60958 35.48 1.28074 35.6098 0.908635C35.8348 0.250956 35.5925 0 34.632 0H18.0862H1.54035C0.579792 0 0.337489 0.25961 0.562484 0.908635C0.692289 1.2894 1.28939 1.60958 1.64419 1.79131Z" fill="#D5BA2C"/>
<path d="M35.281 2.18073C34.5714 2.54418 28.2023 7.07871 23.988 9.80461L31.1013 17.8093C31.2744 17.9823 31.3522 18.19 31.2571 18.2939C31.1532 18.3891 30.9282 18.3371 30.7465 18.1727L22.214 10.9729C20.9246 11.8036 20.0159 12.3748 19.8602 12.4613C19.1938 12.7988 18.7265 12.8421 18.0862 12.8421C17.4458 12.8421 16.9785 12.7988 16.3122 12.4613C16.1477 12.3748 15.2478 11.8036 13.9584 10.9729L5.42585 18.1727C5.25278 18.3458 5.01913 18.3977 4.91528 18.2939C4.81144 18.1987 4.88932 17.9823 5.0624 17.8093L12.1671 9.80461C7.95272 7.07871 1.51439 2.54418 0.804791 2.18073C0.0432683 1.79131 0 2.24996 0 2.60476C0 2.95956 0 20.3448 0 20.3448C0 21.1496 1.18555 22.1534 2.03361 22.1534H18.0862H34.1387C34.9868 22.1534 35.9993 21.1409 35.9993 20.3448C35.9993 20.3448 35.9993 2.95091 35.9993 2.60476C35.9993 2.24131 36.0512 1.79131 35.281 2.18073Z" fill="#D5BA2C"/>
</svg>
