<svg width="437" height="319" viewBox="0 0 437 319" fill="none" xmlns="http://www.w3.org/2000/svg">
<g opacity="0.395764">
<circle opacity="0.351562" cx="171" cy="312" r="5" transform="rotate(45 171 312)" fill="white"/>
<circle opacity="0.351562" cx="140" cy="281" r="5" transform="rotate(45 140 281)" fill="white"/>
<circle opacity="0.351562" cx="106" cy="248" r="5" transform="rotate(45 106 248)" fill="white"/>
<circle opacity="0.351562" cx="73" cy="215" r="5" transform="rotate(45 73 215)" fill="white"/>
<circle opacity="0.351562" cx="42" cy="183" r="5" transform="rotate(45 42 183)" fill="white"/>
<circle opacity="0.351562" cx="9" cy="150" r="5" transform="rotate(45 9 150)" fill="white"/>
<circle opacity="0.351562" cx="237" cy="312" r="5" transform="rotate(45 237 312)" fill="white"/>
<circle opacity="0.351562" cx="204" cy="281" r="5" transform="rotate(45 204 281)" fill="white"/>
<circle opacity="0.351562" cx="171" cy="248" r="5" transform="rotate(45 171 248)" fill="white"/>
<circle opacity="0.351562" cx="140" cy="215" r="5" transform="rotate(45 140 215)" fill="white"/>
<circle opacity="0.351562" cx="106" cy="183" r="5" transform="rotate(45 106 183)" fill="white"/>
<circle opacity="0.351562" cx="73" cy="150" r="5" transform="rotate(45 73 150)" fill="white"/>
<circle opacity="0.351562" cx="42" cy="117" r="5" transform="rotate(45 42 117)" fill="white"/>
<circle opacity="0.351562" cx="302" cy="312" r="5" transform="rotate(45 302 312)" fill="white"/>
<circle opacity="0.351562" cx="269" cy="281" r="5" transform="rotate(45 269 281)" fill="white"/>
<circle opacity="0.351562" cx="237" cy="248" r="5" transform="rotate(45 237 248)" fill="white"/>
<circle opacity="0.351562" cx="204" cy="215" r="5" transform="rotate(45 204 215)" fill="white"/>
<circle opacity="0.351562" cx="171" cy="183" r="5" transform="rotate(45 171 183)" fill="white"/>
<circle opacity="0.351562" cx="140" cy="150" r="5" transform="rotate(45 140 150)" fill="white"/>
<circle opacity="0.351562" cx="106" cy="117" r="5" transform="rotate(45 106 117)" fill="white"/>
<circle opacity="0.351562" cx="73" cy="85" r="5" transform="rotate(45 73 85)" fill="white"/>
<circle opacity="0.351562" cx="367" cy="312" r="5" transform="rotate(45 367 312)" fill="white"/>
<circle opacity="0.351562" cx="335" cy="281" r="5" transform="rotate(45 335 281)" fill="white"/>
<circle opacity="0.351562" cx="302" cy="248" r="5" transform="rotate(45 302 248)" fill="white"/>
<circle opacity="0.351562" cx="269" cy="215" r="5" transform="rotate(45 269 215)" fill="white"/>
<circle opacity="0.351562" cx="237" cy="183" r="5" transform="rotate(45 237 183)" fill="white"/>
<circle opacity="0.351562" cx="204" cy="150" r="5" transform="rotate(45 204 150)" fill="white"/>
<circle opacity="0.351562" cx="171" cy="117" r="5" transform="rotate(45 171 117)" fill="white"/>
<circle opacity="0.351562" cx="140" cy="85" r="5" transform="rotate(45 140 85)" fill="white"/>
<circle opacity="0.351562" cx="106" cy="52" r="5" transform="rotate(45 106 52)" fill="white"/>
<circle opacity="0.351562" cx="433" cy="312" r="5" transform="rotate(45 433 312)" fill="white"/>
<circle opacity="0.351562" cx="400" cy="281" r="5" transform="rotate(45 400 281)" fill="white"/>
<circle opacity="0.351562" cx="367" cy="248" r="5" transform="rotate(45 367 248)" fill="white"/>
<circle opacity="0.351562" cx="335" cy="215" r="5" transform="rotate(45 335 215)" fill="white"/>
<circle opacity="0.351562" cx="302" cy="183" r="5" transform="rotate(45 302 183)" fill="white"/>
<circle opacity="0.351562" cx="269" cy="150" r="5" transform="rotate(45 269 150)" fill="white"/>
<circle opacity="0.351562" cx="237" cy="117" r="5" transform="rotate(45 237 117)" fill="white"/>
<circle opacity="0.351562" cx="204" cy="85" r="5" transform="rotate(45 204 85)" fill="white"/>
<circle opacity="0.351562" cx="171" cy="52" r="5" transform="rotate(45 171 52)" fill="white"/>
<circle opacity="0.351562" cx="140" cy="19" r="5" transform="rotate(45 140 19)" fill="white"/>
<circle opacity="0.351562" cx="433" cy="248" r="5" transform="rotate(45 433 248)" fill="white"/>
<circle opacity="0.351562" cx="400" cy="215" r="5" transform="rotate(45 400 215)" fill="white"/>
<circle opacity="0.351562" cx="367" cy="183" r="5" transform="rotate(45 367 183)" fill="white"/>
<circle opacity="0.351562" cx="335" cy="150" r="5" transform="rotate(45 335 150)" fill="white"/>
<circle opacity="0.351562" cx="302" cy="117" r="5" transform="rotate(45 302 117)" fill="white"/>
<circle opacity="0.351562" cx="269" cy="85" r="5" transform="rotate(45 269 85)" fill="white"/>
<circle opacity="0.351562" cx="237" cy="52" r="5" transform="rotate(45 237 52)" fill="white"/>
<circle opacity="0.351562" cx="204" cy="19" r="5" transform="rotate(45 204 19)" fill="white"/>
<circle opacity="0.351562" cx="433" cy="183" r="5" transform="rotate(45 433 183)" fill="white"/>
<circle opacity="0.351562" cx="400" cy="150" r="5" transform="rotate(45 400 150)" fill="white"/>
<circle opacity="0.351562" cx="367" cy="117" r="5" transform="rotate(45 367 117)" fill="white"/>
<circle opacity="0.351562" cx="335" cy="85" r="5" transform="rotate(45 335 85)" fill="white"/>
<circle opacity="0.351562" cx="302" cy="52" r="5" transform="rotate(45 302 52)" fill="white"/>
<circle opacity="0.351562" cx="269" cy="19" r="5" transform="rotate(45 269 19)" fill="white"/>
<circle opacity="0.351562" cx="433" cy="117" r="5" transform="rotate(45 433 117)" fill="white"/>
<circle opacity="0.351562" cx="400" cy="85" r="5" transform="rotate(45 400 85)" fill="white"/>
<circle opacity="0.351562" cx="367" cy="52" r="5" transform="rotate(45 367 52)" fill="white"/>
<circle opacity="0.351562" cx="335" cy="19" r="5" transform="rotate(45 335 19)" fill="white"/>
<circle opacity="0.351562" cx="433" cy="52" r="5" transform="rotate(45 433 52)" fill="white"/>
<circle opacity="0.351562" cx="400" cy="19" r="5" transform="rotate(45 400 19)" fill="white"/>
</g>
</svg>
